<?xml version="1.0" encoding="utf-8"?>
<!-- Generator: Adobe Illustrator 16.0.0, SVG Export Plug-In . SVG Version: 6.00 Build 0)  -->
<!DOCTYPE svg PUBLIC "-//W3C//DTD SVG 1.1//EN" "http://www.w3.org/Graphics/SVG/1.1/DTD/svg11.dtd">
<svg version="1.1" id="Layer_1" xmlns="http://www.w3.org/2000/svg" xmlns:xlink="http://www.w3.org/1999/xlink" x="0px" y="0px"
	 width="128px" height="128px" viewBox="0 0 128 128" enable-background="new 0 0 128 128" xml:space="preserve">
<g>
	<g>
		<path fill="#62BE77" d="M103.828,43.393C98.836,29.35,85.643,20,70.627,20c-14.145,0-26.883,8.519-32.393,21.415
			c-2.59-1.206-5.406-1.825-8.261-1.825c-10.913,0-19.808,8.86-19.83,19.773c-5.663,4.338-9.03,11.073-9.03,18.264
			c0,12.639,10.301,22.92,23.339,22.92c0.136,0,0.275,0,0.416,0c0.136,0,0.252,0,0.354,0h10.375c1.127,0,2.041-0.91,2.041-2.04
			c0-1.108-0.914-2.021-2.041-2.021H25.12c-0.218,0.02-0.416,0-0.614,0H24.09c-10.435,0-18.916-8.459-18.916-18.879
			c0-6.221,3.068-12.045,8.202-15.571l0.933-0.892l-0.082-1.149c-0.02-0.198-0.02-0.396-0.02-0.592
			c0-8.699,7.055-15.774,15.751-15.774c2.932,0,5.782,0.832,8.275,2.38l2.142,1.327l0.83-2.377c4.383-12.5,16.19-20.9,29.421-20.9
			c13.647,0,25.595,8.739,29.715,21.732l0.376,1.191l1.229,0.198c12.104,1.956,20.882,12.262,20.882,24.501
			c0,13.688-11.153,24.803-24.861,24.803h-3.563c-1.129,0-2.039,0.912-2.039,2.041c0,1.107,0.91,2.021,2.039,2.021h3.563
			c15.946,0,28.923-12.937,28.923-28.862C126.887,57.856,117.26,46.146,103.828,43.393L103.828,43.393z"/>
	</g>
</g>
<path fill="#62BE77" stroke="#62BE77" stroke-width="2" stroke-miterlimit="10" d="M57.408,100.094l10.676-10.678
	c0.4-0.398,0.4-1.049,0-1.447c-0.398-0.4-1.049-0.4-1.438,0l-8.94,8.938V78.887c0-0.568-0.459-1.027-1.019-1.027
	c-0.569,0-1.028,0.459-1.028,1.027v18.021l-8.93-8.938c-0.399-0.4-1.049-0.4-1.448,0c-0.399,0.398-0.399,1.049,0,1.447
	l10.678,10.678h0.01l0.719,0.719L57.408,100.094z"/>
<path fill="#62BE77" stroke="#62BE77" stroke-width="2" stroke-miterlimit="10" d="M76.006,69.104L65.328,79.781
	c-0.398,0.398-0.398,1.049,0,1.447c0.4,0.399,1.049,0.399,1.439,0l8.938-8.938v18.021c0,0.567,0.459,1.026,1.019,1.026
	c0.569,0,1.028-0.459,1.028-1.026V72.29l8.931,8.938c0.397,0.399,1.049,0.399,1.446,0c0.399-0.398,0.399-1.049,0-1.447
	L77.453,69.104h-0.01l-0.719-0.72L76.006,69.104z"/>
</svg>
