<?xml version="1.0" encoding="utf-8"?>
<!-- Generator: Adobe Illustrator 16.0.0, SVG Export Plug-In . SVG Version: 6.00 Build 0)  -->
<!DOCTYPE svg PUBLIC "-//W3C//DTD SVG 1.1//EN" "http://www.w3.org/Graphics/SVG/1.1/DTD/svg11.dtd">
<svg version="1.1" id="Layer_1" xmlns="http://www.w3.org/2000/svg" xmlns:xlink="http://www.w3.org/1999/xlink" x="0px" y="0px"
	 width="128px" height="128px" viewBox="0 0 128 128" enable-background="new 0 0 128 128" xml:space="preserve">
<g>
	<g>
		<path fill="#FCCC00" d="M103.828,43.393C98.836,29.35,85.643,20,70.627,20c-14.145,0-26.883,8.519-32.393,21.415
			c-2.59-1.206-5.406-1.825-8.261-1.825c-10.913,0-19.808,8.86-19.83,19.773C4.48,63.701,1.113,70.436,1.113,77.627
			c0,12.639,10.301,22.92,23.339,22.92c0.136,0,0.275,0,0.416,0c0.136,0,0.252,0,0.354,0h10.375c1.127,0,2.041-0.911,2.041-2.04
			c0-1.109-0.914-2.021-2.041-2.021H25.12c-0.218,0.02-0.416,0-0.614,0H24.09c-10.435,0-18.916-8.459-18.916-18.879
			c0-6.221,3.068-12.045,8.202-15.571l0.933-0.892l-0.082-1.149c-0.02-0.198-0.02-0.396-0.02-0.592
			c0-8.699,7.055-15.774,15.751-15.774c2.932,0,5.782,0.832,8.275,2.38l2.142,1.327l0.83-2.377c4.383-12.5,16.19-20.9,29.421-20.9
			c13.648,0,25.594,8.739,29.715,21.732l0.376,1.191l1.229,0.198c12.104,1.956,20.88,12.262,20.88,24.502
			c0,13.689-11.153,24.803-24.861,24.803h-3.562c-1.13,0-2.04,0.911-2.04,2.04c0,1.109,0.91,2.021,2.04,2.021h3.562
			c15.946,0,28.922-12.936,28.922-28.863C126.887,57.856,117.26,46.146,103.828,43.393L103.828,43.393z M103.828,43.393"/>
	</g>
</g>
<g>
	<path fill="#FCCC00" d="M43.125,94.096v7.409c0,0.962,0.779,1.742,1.741,1.742h40.266c0.964,0,1.744-0.78,1.744-1.742v-7.409
		H43.125z M43.125,94.096"/>
	<path fill="#FCCC00" d="M86.969,91.655c0.342-3.022,1.567-9.703,2.527-14.58c1.101-0.501,1.868-1.608,1.868-2.894
		c0-1.755-1.428-3.182-3.181-3.182c-1.755,0-3.183,1.427-3.183,3.182c0,0.568,0.152,1.102,0.416,1.564l-2.871,2.871
		c-0.856-2.015-1.276-5.121-1.389-7.498c0.895-0.563,1.491-1.557,1.491-2.69c0-1.754-1.426-3.181-3.181-3.181
		c-1.754,0-3.182,1.427-3.182,3.181c0,0.791,0.292,1.514,0.771,2.07c-1.858,3.199-4.451,6.279-6.062,8.065
		c-1.416-2.953-3.011-8.826-4-13.414c0.723-0.584,1.186-1.475,1.186-2.474c0-1.754-1.428-3.181-3.181-3.181
		c-1.754,0-3.181,1.427-3.181,3.181c0,1,0.464,1.89,1.186,2.474c-0.989,4.588-2.584,10.463-4,13.414
		c-1.608-1.782-4.202-4.859-6.062-8.065c0.479-0.557,0.771-1.279,0.771-2.07c0-1.754-1.427-3.181-3.182-3.181
		c-1.753,0-3.181,1.427-3.181,3.181c0,1.134,0.598,2.128,1.493,2.691c-0.112,2.376-0.531,5.482-1.389,7.497l-2.872-2.871
		c0.262-0.463,0.415-0.996,0.415-1.564c0-1.755-1.428-3.182-3.181-3.182c-1.754,0-3.182,1.427-3.182,3.182
		c0,1.285,0.768,2.393,1.868,2.894c0.96,4.877,2.186,11.557,2.528,14.58H86.969z M65,82.505c1.753,0,3.181,1.426,3.181,3.181
		c0,1.754-1.428,3.182-3.181,3.182c-1.754,0-3.181-1.428-3.181-3.182C61.819,83.931,63.246,82.505,65,82.505L65,82.505z M65,82.505"
		/>
</g>
</svg>
