<?xml version="1.0" encoding="utf-8"?>
<!-- Generator: Adobe Illustrator 16.0.0, SVG Export Plug-In . SVG Version: 6.00 Build 0)  -->
<!DOCTYPE svg PUBLIC "-//W3C//DTD SVG 1.1//EN" "http://www.w3.org/Graphics/SVG/1.1/DTD/svg11.dtd">
<svg version="1.1" id="Layer_1" xmlns="http://www.w3.org/2000/svg" xmlns:xlink="http://www.w3.org/1999/xlink" x="0px" y="0px"
	 width="463px" height="115px" viewBox="0 0 463 115" enable-background="new 0 0 463 115" xml:space="preserve">
<path fill="#62BE77" d="M105.831,87.049l-53.862,26.574c-0.528,0.26-1.086,0.391-1.627,0.391c-0.54,0-1.063-0.131-1.517-0.391
	L2.404,87.049c-1.018-0.582-1.545-1.725-1.37-2.971l7.44-53.144c0.05-0.356,0.155-0.705,0.309-1.034
	c0.37-0.864,1.064-1.606,1.943-2.038L64.544,1.376c1.055-0.519,2.229-0.519,3.138,0l46.401,26.486
	c0.758,0.432,1.244,1.174,1.373,2.038c0.06,0.33,0.066,0.678,0.019,1.034l-7.441,53.144
	C107.858,85.324,107.011,86.467,105.831,87.049z M77.22,60.775c0.233,1.957,2.365,2.563,4.762,1.352l11.507-5.814
	c2.396-1.211,4.151-3.78,3.919-5.737s-2.363-2.562-4.762-1.351L81.139,55.04C78.742,56.25,76.987,58.818,77.22,60.775z
	 M11.973,34.517L5.1,83.598c-0.039,0.279,0.152,0.504,0.427,0.504l41.657,23.912c0.275,0,0.529-0.227,0.568-0.504l7.084-50.592
	c0.039-0.278-0.152-0.503-0.427-0.503L12.541,34.013C12.266,34.013,12.012,34.239,11.973,34.517z M108.133,29.691L66.436,6.286
	c-0.568-0.319-1.402-0.392-1.863-0.161L15.796,30.104c-0.421,0.211-0.306,0.623,0.256,0.918l41.08,22.728
	c0.531,0.28,1.307,0.348,1.731,0.152l49.4-23.276C108.729,30.411,108.67,29.993,108.133,29.691z"/>
<g>
	<g>
		<path fill="#505A78" d="M157.644,68.547c-0.35,2.449-0.56,4.83-0.7,7.28h-1.189c-0.63-2.45-1.61-5.251-2.24-7.28l-10.852-31.994
			c-0.561-1.47-1.261-2.311-2.801-2.311h-5.95c-1.75,0-2.661,0.77-2.94,2.59L124.6,82.548h7l4.761-35.214
			c0.28-2.17,0.49-4.34,0.561-6.581h1.05c0.42,2.03,1.26,4.761,1.891,6.581l11.271,32.902c0.49,1.472,1.19,2.312,2.729,2.312h6.091
			c1.75,0,2.521-0.771,2.8-2.59l6.44-45.715h-6.931L157.644,68.547z M188.372,47.474c-11.691,0-16.662,4.9-18.412,17.782
			c-1.82,13.161,2.729,18.202,14.211,18.202c11.48,0,16.521-4.761,18.342-17.712C204.403,52.585,199.993,47.474,188.372,47.474z
			 M195.512,65.256c-1.33,9.592-4.13,12.531-11.341,12.531c-6.932,0-8.471-2.66-7.21-12.041c1.47-10.011,4.34-12.531,11.411-12.531
			C195.232,53.215,196.913,55.805,195.512,65.256z M217.42,44.674c0.49-3.57,1.75-4.55,5.25-4.55h17.712l1.051-5.391
			c-6.092-0.63-13.231-0.63-20.163-0.63c-6.091,0-9.801,3.081-10.711,8.891l-5.46,39.554h7.001l3.08-21.843h19.742l0.771-5.39
			H215.88L217.42,44.674z M238.418,82.548h6.721l4.761-34.164h-6.721L238.418,82.548z M250.039,33.823h-3.222
			c-1.33,0-1.959,0.63-2.028,1.82l-0.631,3.92c-0.141,1.33,0.561,2.17,1.891,2.17h3.221c1.33,0,1.892-0.56,2.101-1.89l0.489-3.92
			C252.069,34.663,251.369,33.823,250.039,33.823z M263.339,77.018c-3.15,0-4.2-1.051-3.71-4.201l5.531-39.272h-6.723l-5.741,40.534
			c-0.77,5.811,2.24,9.102,7.632,9.102c1.609,0,5.11-0.211,6.512-0.841l-0.281-5.319h-3.22V77.018z M300.859,58.535
			c0.98-6.86-1.75-11.061-12.95-11.061c-12.392,0-17.082,3.78-18.9,17.083c-1.682,12.741,2.379,18.832,14.211,18.832
			c4.061,0,10.361-0.49,14.07-1.961l-0.42-4.551c-3.92,0.421-8.82,0.842-12.603,0.842c-5.459,0-8.68-1.4-8.608-8.262l11.829-1.051
			C295.82,67.775,299.74,65.326,300.859,58.535z M286.859,53.145c5.459,0,7.841,0.14,7.211,4.831
			c-0.561,3.92-2.381,5.111-6.582,5.39l-11.409,1.051C277.547,55.035,279.928,53.145,286.859,53.145z M318.077,53.145
			c5.181,0.07,9.24,0.21,13.58,0.351l0.84-4.831c-3.92-0.63-9.801-1.121-14.631-1.19c-8.961-0.14-13.649,1.68-14.422,8.191
			c-0.629,4.971,1.683,7.631,6.582,9.939l9.17,4.201c3.01,1.4,4.691,1.82,4.271,4.342c-0.42,2.799-2.66,3.5-11.271,3.5
			c-3.149,0-7.561-0.07-10.711-0.351l-0.771,5.04c4.971,0.49,5.881,0.98,13.231,0.98c9.59,0,15.121-0.771,16.172-8.541
			c0.699-5.252-1.471-7.422-6.791-9.871l-9.239-4.201c-2.802-1.26-4.412-1.96-4.062-4.55
			C310.377,53.285,312.477,53.145,318.077,53.145z"/>
	</g>
</g>
<path fill="#62BE77" d="M335.704,74.497c-1.541,0-2.381,0.7-2.592,2.31l-0.559,3.781c-0.281,1.75,0.49,2.59,2.309,2.59h2.24
	c1.611,0,2.451-0.771,2.662-2.38l0.488-3.711c0.211-1.75-0.421-2.59-2.31-2.59H335.704z"/>
<g>
	<g>
		<path fill="#CCCCCC" d="M346.693,65.676c-1.82,13.021,1.82,17.782,13.092,17.782c3.289,0,7.07-0.489,10.222-1.188l-0.211-1.262
			c-3.22,0.631-7.841,0.84-9.869,0.84c-10.082,0-13.232-3.57-11.482-15.961c1.75-12.392,6.021-16.102,16.242-16.102
			c2.17,0,6.23,0.21,8.541,0.84l0.49-1.26c-2.801-0.91-6.791-1.19-9.381-1.19C353.273,48.175,348.514,52.795,346.693,65.676z
			 M392.125,48.175c-10.781,0-15.191,4.62-17.013,17.501c-1.819,13.021,1.472,17.782,12.394,17.782
			c10.78,0,15.19-4.62,17.012-17.501C406.338,52.935,403.047,48.175,392.125,48.175z M402.768,65.676
			c-1.682,12.182-5.742,16.172-15.262,16.172c-9.521,0-12.322-3.85-10.644-15.891c1.683-12.182,5.742-16.172,15.263-16.172
			S404.447,53.635,402.768,65.676z M453.447,48.175c-4.688,0-9.59,3.36-15.399,8.681c0.559-5.67-2.172-8.681-7.982-8.681
			c-4.83,0-9.801,3.5-15.82,9.031l1.05-8.191h-1.261l-4.76,33.604h1.68l3.361-23.941c6.65-5.812,10.99-8.892,15.471-8.892
			c5.111,0,7.281,2.24,6.511,7.701l-3.57,25.133h1.682l3.431-24.013c6.58-5.74,10.852-8.821,15.332-8.821
			c5.108,0,7.28,2.24,6.51,7.701l-3.57,25.133h1.682l3.57-25.203C462.198,51.395,459.469,48.175,453.447,48.175z"/>
	</g>
</g>
</svg>
