<?xml version="1.0" encoding="utf-8"?>
<!-- Generator: Adobe Illustrator 16.0.0, SVG Export Plug-In . SVG Version: 6.00 Build 0)  -->
<!DOCTYPE svg PUBLIC "-//W3C//DTD SVG 1.1//EN" "http://www.w3.org/Graphics/SVG/1.1/DTD/svg11.dtd">
<svg version="1.1" id="Layer_1" xmlns="http://www.w3.org/2000/svg" xmlns:xlink="http://www.w3.org/1999/xlink" x="0px" y="0px"
	 width="116px" height="115px" viewBox="0 0 116 115" enable-background="new 0 0 116 115" xml:space="preserve">
<path fill-rule="evenodd" clip-rule="evenodd" fill="#62BE77" d="M106.077,87.049l-53.862,26.574
	c-0.528,0.26-1.086,0.391-1.627,0.391c-0.54,0-1.062-0.131-1.517-0.391L2.65,87.049c-1.018-0.582-1.545-1.725-1.371-2.971
	L8.72,30.934c0.05-0.356,0.155-0.705,0.308-1.034c0.371-0.864,1.065-1.606,1.944-2.038L64.791,1.376
	c1.055-0.519,2.229-0.519,3.138,0l46.401,26.486c0.758,0.432,1.244,1.174,1.373,2.038c0.06,0.33,0.067,0.678,0.019,1.034
	l-7.442,53.144C108.104,85.324,107.257,86.467,106.077,87.049z M77.466,60.775c0.233,1.957,2.365,2.563,4.762,1.352l11.507-5.814
	c2.396-1.211,4.151-3.78,3.918-5.737c-0.232-1.957-2.363-2.562-4.761-1.351L81.385,55.04C78.988,56.25,77.233,58.818,77.466,60.775z
	 M12.219,34.517L5.346,83.598c-0.039,0.279,0.152,0.504,0.427,0.504l41.657,23.912c0.275,0,0.529-0.227,0.568-0.504l7.084-50.592
	c0.039-0.278-0.152-0.503-0.427-0.503L12.787,34.013C12.512,34.013,12.258,34.239,12.219,34.517z M108.379,29.691L66.682,6.286
	c-0.569-0.319-1.403-0.392-1.863-0.161L16.042,30.104c-0.421,0.211-0.306,0.623,0.256,0.918l41.08,22.728
	c0.531,0.28,1.307,0.348,1.732,0.152l49.4-23.276C108.975,30.411,108.917,29.993,108.379,29.691z"/>
</svg>
