<?xml version="1.0" encoding="utf-8"?>
<!-- Generator: Adobe Illustrator 16.0.0, SVG Export Plug-In . SVG Version: 6.00 Build 0)  -->
<!DOCTYPE svg PUBLIC "-//W3C//DTD SVG 1.1//EN" "http://www.w3.org/Graphics/SVG/1.1/DTD/svg11.dtd">
<svg version="1.1" id="Layer_1" xmlns="http://www.w3.org/2000/svg" xmlns:xlink="http://www.w3.org/1999/xlink" x="0px" y="0px"
	 width="128px" height="128px" viewBox="0 0 128 128" enable-background="new 0 0 128 128" xml:space="preserve">
<g>
	<g>
		<path fill="#CCCCCC" d="M103.828,43.393C98.836,29.35,85.643,20,70.627,20c-14.145,0-26.883,8.519-32.393,21.415
			c-2.59-1.206-5.406-1.825-8.261-1.825c-10.913,0-19.808,8.86-19.83,19.773C4.48,63.701,1.113,70.436,1.113,77.627
			c0,12.639,10.301,22.92,23.339,22.92c0.136,0,0.275,0,0.416,0c0.136,0,0.252,0,0.354,0h10.375c1.127,0,2.041-0.911,2.041-2.04
			c0-1.109-0.914-2.021-2.041-2.021H25.12c-0.218,0.02-0.416,0-0.614,0H24.09c-10.435,0-18.916-8.459-18.916-18.879
			c0-6.221,3.068-12.045,8.202-15.571l0.933-0.892l-0.082-1.149c-0.02-0.198-0.02-0.396-0.02-0.592
			c0-8.699,7.055-15.774,15.751-15.774c2.932,0,5.782,0.832,8.275,2.38l2.142,1.327l0.83-2.377c4.383-12.5,16.19-20.9,29.421-20.9
			c13.648,0,25.594,8.739,29.715,21.732l0.376,1.191l1.229,0.198c12.104,1.956,20.88,12.262,20.88,24.502
			c0,13.689-11.153,24.803-24.861,24.803h-3.562c-1.13,0-2.04,0.911-2.04,2.04c0,1.109,0.91,2.021,2.04,2.021h3.562
			c15.946,0,28.922-12.936,28.922-28.863C126.887,57.856,117.26,46.146,103.828,43.393L103.828,43.393z M103.828,43.393"/>
	</g>
</g>
<g>
	<path fill="#CCCCCC" d="M64.869,88.839c1.744,0,3.164-1.419,3.164-3.164c0-1.746-1.42-3.166-3.164-3.166
		c-1.746,0-3.166,1.42-3.166,3.166C61.703,87.42,63.123,88.839,64.869,88.839L64.869,88.839z M64.869,88.839"/>
	<path fill="#CCCCCC" d="M91.102,74.228c0-1.746-1.42-3.165-3.165-3.165c-1.747,0-3.166,1.419-3.166,3.165
		c0,0.566,0.151,1.097,0.413,1.557l-2.857,2.856c-0.85-2.004-1.269-5.096-1.381-7.46c0.891-0.561,1.484-1.548,1.484-2.677
		c0-1.745-1.42-3.165-3.166-3.165c-1.744,0-3.166,1.42-3.166,3.165c0,0.787,0.292,1.506,0.768,2.06
		c-1.849,3.184-4.43,6.249-6.031,8.025c-1.408-2.938-2.995-8.783-3.98-13.347c0.719-0.582,1.18-1.468,1.18-2.461
		c0-1.745-1.42-3.166-3.164-3.166c-1.746,0-3.166,1.42-3.166,3.166c0,0.994,0.462,1.88,1.179,2.461
		c-0.983,4.563-2.57,10.41-3.979,13.348c-1.602-1.775-4.181-4.838-6.032-8.026c0.477-0.554,0.767-1.272,0.767-2.06
		c0-1.745-1.419-3.165-3.166-3.165c-1.745,0-3.164,1.42-3.164,3.165c0,1.129,0.594,2.118,1.485,2.679
		c-0.112,2.363-0.527,5.454-1.382,7.46l-2.857-2.858c0.261-0.46,0.412-0.99,0.412-1.557c0-1.746-1.42-3.165-3.165-3.165
		c-1.746,0-3.166,1.419-3.166,3.165c0,1.28,0.765,2.381,1.858,2.88c1.123,5.698,2.608,13.872,2.608,15.721v8.586
		c0,0.958,0.776,1.734,1.734,1.734H84.9c0.958,0,1.735-0.776,1.735-1.734v-8.586c0-1.849,1.485-10.022,2.608-15.721
		C90.338,76.608,91.102,75.508,91.102,74.228L91.102,74.228z M46.471,82.607c0.678,0.678,1.776,0.678,2.453,0
		c1.647-1.646,2.49-4.599,2.92-7.25c2.806,3.964,5.897,7.075,6.075,7.25c0.678,0.678,1.775,0.678,2.453,0
		c1.747-1.746,3.348-6.532,4.497-10.795c1.149,4.263,2.75,9.049,4.497,10.795c0.325,0.326,0.766,0.509,1.226,0.509
		s0.901-0.183,1.227-0.509c0.177-0.175,3.268-3.286,6.074-7.25c0.431,2.651,1.273,5.604,2.92,7.25c0.678,0.678,1.775,0.678,2.453,0
		l1.721-1.72c-0.643,3.446-1.387,7.649-1.687,10.208H46.436c-0.298-2.559-1.042-6.762-1.686-10.208L46.471,82.607z M83.166,99.68
		H46.57v-5.116h36.596V99.68z M83.166,99.68"/>
</g>
</svg>
